<svg width="122" height="30" viewBox="0 0 122 30" fill="none" xmlns="http://www.w3.org/2000/svg">
<path d="M0 0.655737H9.64352V21.8443H22.556V29.3443H0V0.655737Z" fill="black"/>
<path d="M39.8172 30C36.7389 30 33.9739 29.3579 31.5221 28.0738C29.0704 26.7896 27.1498 25.0137 25.7605 22.7459C24.3712 20.4508 23.6765 17.8689 23.6765 15C23.6765 12.1311 24.3712 9.56284 25.7605 7.29508C27.1498 5 29.0704 3.21038 31.5221 1.92623C33.9739 0.642076 36.7389 0 39.8172 0C42.8955 0 45.6605 0.642076 48.1122 1.92623C50.564 3.21038 52.4845 5 53.8738 7.29508C55.2631 9.56284 55.9578 12.1311 55.9578 15C55.9578 17.8689 55.2631 20.4508 53.8738 22.7459C52.4845 25.0137 50.564 26.7896 48.1122 28.0738C45.6605 29.3579 42.8955 30 39.8172 30ZM39.8172 22.1721C41.0158 22.1721 42.0919 21.8852 43.0453 21.3115C44.026 20.7104 44.8024 19.877 45.3745 18.8115C45.9465 17.7186 46.2326 16.4481 46.2326 15C46.2326 13.5519 45.9465 12.2951 45.3745 11.2295C44.8024 10.1366 44.026 9.30328 43.0453 8.72951C42.0919 8.12842 41.0158 7.82787 39.8172 7.82787C38.6185 7.82787 37.5289 8.12842 36.5482 8.72951C35.5947 9.30328 34.832 10.1366 34.2599 11.2295C33.6878 12.2951 33.4018 13.5519 33.4018 15C33.4018 16.4481 33.6878 17.7186 34.2599 18.8115C34.832 19.877 35.5947 20.7104 36.5482 21.3115C37.5289 21.8852 38.6185 22.1721 39.8172 22.1721Z" fill="black"/>
<path d="M78.3772 14.2213H86.754V26.3525C85.065 27.5273 83.1036 28.429 80.8698 29.0574C78.636 29.6858 76.4431 30 74.291 30C71.2399 30 68.5021 29.3716 66.0776 28.1148C63.6531 26.8306 61.7462 25.0546 60.3569 22.7869C58.9948 20.4918 58.3138 17.8962 58.3138 15C58.3138 12.1038 58.9948 9.52186 60.3569 7.2541C61.7462 4.95902 63.6667 3.18306 66.1185 1.92623C68.5975 0.642076 71.3897 0 74.4953 0C77.3012 0 79.8074 0.478142 82.014 1.43442C84.2478 2.36339 86.1002 3.72951 87.5712 5.53279L81.401 10.9836C79.6031 8.87978 77.4646 7.82787 74.9856 7.82787C72.8608 7.82787 71.1718 8.46994 69.9187 9.7541C68.6656 11.0383 68.039 12.7869 68.039 15C68.039 17.1585 68.652 18.8934 69.8778 20.2049C71.1309 21.5164 72.7927 22.1721 74.863 22.1721C76.0889 22.1721 77.2603 21.9399 78.3772 21.4754V14.2213Z" fill="black"/>
<path d="M105.859 30C102.781 30 100.016 29.3579 97.5643 28.0738C95.1126 26.7896 93.192 25.0137 91.8027 22.7459C90.4134 20.4508 89.7187 17.8689 89.7187 15C89.7187 12.1311 90.4134 9.56284 91.8027 7.29508C93.192 5 95.1126 3.21038 97.5643 1.92623C100.016 0.642076 102.781 0 105.859 0C108.938 0 111.703 0.642076 114.154 1.92623C116.606 3.21038 118.527 5 119.916 7.29508C121.305 9.56284 122 12.1311 122 15C122 17.8689 121.305 20.4508 119.916 22.7459C118.527 25.0137 116.606 26.7896 114.154 28.0738C111.703 29.3579 108.938 30 105.859 30ZM105.859 22.1721C107.058 22.1721 108.134 21.8852 109.088 21.3115C110.068 20.7104 110.845 19.877 111.417 18.8115C111.989 17.7186 112.275 16.4481 112.275 15C112.275 13.5519 111.989 12.2951 111.417 11.2295C110.845 10.1366 110.068 9.30328 109.088 8.72951C108.134 8.12842 107.058 7.82787 105.859 7.82787C104.661 7.82787 103.571 8.12842 102.59 8.72951C101.637 9.30328 100.874 10.1366 100.302 11.2295C99.73 12.2951 99.444 13.5519 99.444 15C99.444 16.4481 99.73 17.7186 100.302 18.8115C100.874 19.877 101.637 20.7104 102.59 21.3115C103.571 21.8852 104.661 22.1721 105.859 22.1721Z" fill="black"/>
</svg>
