<svg width="49" height="50" viewBox="0 0 49 50" fill="none" xmlns="http://www.w3.org/2000/svg">
<path d="M24.7024 49.1772C38.1216 49.1772 49 38.2988 49 24.8796C49 11.4604 38.1216 0.582031 24.7024 0.582031C11.2832 0.582031 0.404785 11.4604 0.404785 24.8796C0.404785 38.2988 11.2832 49.1772 24.7024 49.1772Z" fill="black"/>
<path fill-rule="evenodd" clip-rule="evenodd" d="M11.4754 24.5746C18.65 21.4886 23.4342 19.454 25.8279 18.4711C32.6626 15.6645 34.0828 15.1769 35.0085 15.1608C35.212 15.1573 35.6673 15.2071 35.9621 15.4433C36.2111 15.6428 36.2796 15.9122 36.3124 16.1013C36.3452 16.2904 36.386 16.7212 36.3535 17.0578C35.9832 20.8999 34.3806 30.2234 33.5653 34.5266C33.2203 36.3474 32.541 36.9579 31.8833 37.0177C30.4541 37.1475 29.3689 36.0852 27.9846 35.1893C25.8185 33.7875 24.5949 32.9149 22.4923 31.547C20.0624 29.9661 21.6376 29.0972 23.0224 27.6772C23.3848 27.3056 29.6819 21.6509 29.8037 21.1379C29.819 21.0737 29.8331 20.8346 29.6892 20.7083C29.5453 20.582 29.3329 20.6252 29.1797 20.6595C28.9624 20.7082 25.5021 22.9663 18.7987 27.4337C17.8165 28.0995 16.9268 28.424 16.1297 28.407C15.251 28.3882 13.5607 27.9164 12.3041 27.5132C10.7628 27.0186 9.53787 26.757 9.64454 25.917C9.70009 25.4795 10.3104 25.032 11.4754 24.5746Z" fill="white"/>
</svg>
